<?xml version="1.0" standalone="no"?>
<!DOCTYPE svg PUBLIC "-//W3C//DTD SVG 20010904//EN"
 "http://www.w3.org/TR/2001/REC-SVG-20010904/DTD/svg10.dtd">
<svg version="1.0" xmlns="http://www.w3.org/2000/svg"
 width="28.000000pt" height="28.000000pt" viewBox="0 0 64.000000 64.000000"
 preserveAspectRatio="xMidYMid meet">

<g transform="translate(0.000000,68.000000) scale(0.100000,-0.100000)"
fill="#000000" stroke="none">
<path d="M82 598 c-18 -18 -15 -133 4 -152 23 -23 305 -23 328 0 19 19 22 134
4 152 -17 17 -319 17 -336 0z m318 -73 l0 -65 -150 0 -150 0 0 65 0 65 150 0
150 0 0 -65z"/>
<path d="M47 413 c-13 -12 -7 -60 8 -73 12 -10 15 -36 15 -116 0 -59 -4 -106
-10 -109 -15 -9 -2 -25 21 -25 10 0 19 -6 19 -13 0 -18 42 -57 61 -57 24 0 59
30 59 51 0 17 8 19 98 19 l97 0 17 -30 c13 -23 24 -30 47 -30 31 0 61 22 61
46 0 9 11 14 30 14 26 0 30 3 30 29 0 54 -21 136 -50 200 -21 44 -27 67 -20
76 5 6 7 15 3 18 -8 9 -478 9 -486 0z m371 -40 c-2 -10 -13 -19 -26 -21 -23
-4 -31 -22 -9 -22 7 0 23 -13 35 -30 20 -26 29 -30 72 -30 58 0 69 -13 77 -96
5 -48 4 -54 -13 -54 -10 0 -28 7 -38 15 -26 19 -50 19 -66 -1 -11 -13 -33 -14
-129 -11 -64 3 -132 8 -152 12 -23 4 -39 3 -43 -4 -19 -30 -26 -2 -26 94 0 63
4 105 10 105 20 0 9 19 -12 22 -13 2 -24 11 -26 21 -3 16 10 17 173 17 163 0
176 -1 173 -17z m87 -20 c34 -51 32 -63 -9 -63 -50 0 -66 20 -52 64 14 46 29
45 61 -1z m-320 -249 c18 -18 16 -33 -7 -47 -35 -22 -66 21 -36 51 16 16 23
15 43 -4z m324 2 c23 -28 -17 -68 -45 -45 -15 12 -19 41 -7 52 11 12 40 8 52
-7z"/>
<path d="M140 340 c0 -5 14 -10 30 -10 17 0 30 5 30 10 0 6 -13 10 -30 10 -16
0 -30 -4 -30 -10z"/>
<path d="M220 340 c0 -5 11 -10 25 -10 14 0 25 5 25 10 0 6 -11 10 -25 10 -14
0 -25 -4 -25 -10z"/>
<path d="M290 340 c0 -5 14 -10 30 -10 17 0 30 5 30 10 0 6 -13 10 -30 10 -16
0 -30 -4 -30 -10z"/>
</g>
</svg>
